<?xml version="1.0" standalone="no"?>
<!DOCTYPE svg PUBLIC "-//W3C//DTD SVG 20010904//EN"
 "http://www.w3.org/TR/2001/REC-SVG-20010904/DTD/svg10.dtd">
<svg version="1.0" xmlns="http://www.w3.org/2000/svg"
 width="1024.000000pt" height="1024.000000pt" viewBox="0 0 1024.000000 1024.000000"
 preserveAspectRatio="xMidYMid meet">
<metadata>
Created by potrace 1.14, written by Peter Selinger 2001-2017
</metadata>
<g transform="translate(0.000000,1024.000000) scale(0.100000,-0.100000)"
fill="#000000" stroke="none">
<path d="M5077 10044 c-1 -1 -85 -4 -186 -8 -100 -3 -186 -8 -190 -10 -3 -2
-38 -7 -78 -10 -131 -12 -165 -17 -358 -51 -424 -74 -879 -223 -1280 -420
-297 -147 -512 -275 -740 -444 -899 -666 -1523 -1543 -1840 -2586 -74 -243
-150 -605 -170 -811 -3 -32 -8 -66 -10 -74 -2 -8 -7 -60 -11 -115 -3 -55 -8
-111 -10 -125 -5 -36 -4 -511 1 -605 7 -131 16 -220 45 -431 6 -44 13 -91 15
-105 3 -13 8 -37 11 -54 3 -16 14 -73 25 -126 11 -52 21 -104 23 -115 8 -41
66 -254 94 -344 111 -359 278 -734 458 -1033 30 -50 54 -91 54 -93 0 -6 126
-193 194 -289 197 -276 477 -587 736 -815 47 -41 87 -77 90 -80 20 -22 230
-185 345 -267 506 -363 1103 -633 1720 -778 103 -24 233 -50 305 -61 19 -3 42
-7 50 -9 8 -2 40 -7 70 -10 30 -3 80 -10 110 -15 30 -5 96 -12 145 -15 50 -4
106 -9 125 -11 45 -5 614 -5 660 0 19 2 76 7 125 10 303 22 749 112 1074 218
121 39 364 128 406 148 11 5 54 25 95 43 200 91 258 121 589 312 51 30 240
160 336 231 392 292 785 688 1063 1070 393 542 693 1203 827 1824 19 89 55
276 59 315 4 28 9 57 11 65 2 8 6 35 9 60 3 25 8 72 11 105 4 33 8 70 10 83
22 138 22 736 0 922 -2 19 -6 60 -10 90 -16 162 -36 289 -76 480 -191 923
-650 1776 -1319 2451 -413 416 -790 693 -1294 950 -470 240 -1037 418 -1536
484 -25 3 -52 8 -60 10 -8 2 -49 6 -90 10 -41 3 -88 8 -105 10 -59 8 -521 25
-528 19z m413 -308 c47 -4 103 -9 125 -11 22 -2 67 -7 100 -10 63 -6 73 -8
170 -24 239 -40 344 -63 565 -126 559 -160 1070 -419 1551 -786 371 -284 763
-702 1026 -1094 63 -94 154 -240 166 -265 4 -8 17 -31 28 -50 31 -50 138 -261
182 -358 123 -268 234 -600 297 -882 27 -118 28 -123 40 -190 20 -116 36 -222
45 -311 4 -30 8 -67 10 -84 12 -83 20 -273 20 -470 -1 -412 -27 -634 -130
-1106 -10 -46 -68 -246 -98 -339 -404 -1236 -1344 -2279 -2524 -2801 -75 -33
-179 -76 -232 -96 -53 -19 -123 -45 -156 -58 -54 -20 -327 -103 -365 -110 -8
-2 -54 -12 -102 -24 -49 -11 -154 -32 -235 -45 -148 -25 -176 -29 -288 -41
-33 -4 -70 -8 -83 -10 -62 -10 -278 -19 -447 -19 -227 0 -411 10 -583 34 -43
5 -93 12 -112 14 -221 27 -648 136 -910 232 -343 126 -658 287 -990 507 -77
51 -230 159 -265 188 -235 193 -290 242 -468 424 -133 134 -321 353 -420 487
-66 89 -253 372 -289 438 -14 25 -35 63 -48 85 -82 144 -205 409 -270 580 -79
208 -189 588 -214 740 -3 17 -14 80 -25 140 -10 61 -24 156 -31 210 -6 55 -13
116 -15 135 -25 208 -24 749 0 899 3 14 7 52 10 85 6 63 30 232 40 276 4 22
15 80 31 165 3 17 17 75 30 130 14 55 27 107 29 115 3 18 24 85 72 235 119
370 321 784 553 1130 63 94 251 350 269 365 3 3 31 34 61 70 233 274 533 550
826 759 54 39 104 75 109 79 28 23 192 126 280 177 334 193 879 416 1145 470
8 2 42 10 75 19 120 30 271 61 385 77 41 5 86 12 100 14 75 12 167 21 310 30
58 4 106 8 108 10 5 5 458 -3 542 -9z"/>
<path d="M5060 9593 c-12 -16 -50 -59 -83 -97 -118 -133 -152 -172 -207 -236
-30 -35 -62 -71 -70 -79 -9 -9 -47 -52 -85 -96 -39 -44 -72 -82 -75 -85 -7 -6
-127 -144 -166 -189 -16 -19 -38 -44 -49 -55 -11 -12 -45 -50 -75 -86 -30 -35
-62 -71 -70 -80 -14 -15 -102 -114 -150 -170 -12 -14 -34 -39 -48 -55 -15 -17
-61 -69 -102 -115 -41 -47 -79 -90 -85 -96 -5 -6 -33 -38 -61 -70 -93 -107
-438 -499 -444 -504 -3 -3 -84 -95 -180 -205 -96 -110 -179 -205 -185 -211 -5
-6 -37 -41 -70 -79 -33 -37 -65 -73 -70 -79 -13 -14 -212 -241 -245 -280 -14
-16 -32 -36 -40 -45 -9 -9 -47 -52 -85 -96 -39 -44 -72 -82 -75 -85 -3 -3 -68
-77 -145 -165 -77 -88 -144 -165 -150 -171 -5 -6 -37 -41 -70 -79 -33 -38 -69
-78 -80 -91 -11 -12 -31 -35 -45 -50 -187 -214 -392 -447 -421 -479 -20 -22
-88 -100 -153 -173 l-116 -133 68 -67 c37 -37 83 -85 101 -107 19 -22 54 -62
80 -90 25 -27 82 -90 126 -140 82 -92 142 -159 160 -179 6 -6 66 -74 135 -151
69 -77 143 -160 166 -185 73 -81 309 -345 322 -361 13 -17 18 -5 -135 -329
-28 -58 -74 -154 -103 -215 -29 -60 -93 -195 -143 -300 -49 -104 -113 -239
-142 -300 -29 -60 -78 -152 -109 -204 -31 -52 -54 -96 -52 -99 3 -2 62 -4 133
-4 70 0 514 1 987 2 l859 2 31 -34 c94 -105 181 -201 218 -244 53 -59 409
-456 533 -594 28 -31 82 -91 120 -134 39 -44 75 -84 80 -90 6 -6 48 -54 95
-106 47 -52 99 -111 117 -130 17 -19 40 -44 50 -56 34 -39 158 -178 202 -226
24 -27 46 -46 49 -43 3 3 16 -5 29 -16 l23 -22 33 39 c90 104 169 197 237 279
41 50 78 92 81 95 3 3 32 37 65 75 155 184 729 861 734 865 3 3 28 32 55 65
55 65 60 72 161 190 37 44 69 82 70 84 2 2 453 3 1004 3 l1001 0 -36 64 c-20
35 -36 66 -35 69 0 9 -45 106 -160 340 -280 573 -325 665 -365 750 -24 50 -63
132 -89 184 l-45 93 52 62 c29 33 54 63 57 66 3 3 41 48 85 100 44 52 82 97
85 100 3 3 41 48 85 100 92 110 100 119 187 220 77 90 166 195 261 310 38 47
75 90 81 95 6 6 33 37 61 70 27 33 56 66 63 74 7 7 10 21 7 31 -4 12 1 22 11
28 15 8 -36 72 -346 433 -200 233 -366 426 -370 429 -3 3 -57 66 -120 140 -63
74 -117 137 -120 140 -3 3 -60 68 -126 145 -66 77 -324 379 -575 670 -250 292
-464 541 -475 554 -10 13 -26 31 -34 40 -9 9 -43 48 -75 86 -33 39 -62 72 -65
75 -3 3 -59 68 -125 145 -134 156 -132 155 -240 280 -43 50 -89 104 -104 120
-14 17 -105 122 -201 235 -96 113 -177 207 -180 210 -9 9 -84 96 -130 150 -25
30 -65 77 -90 105 -53 60 -82 94 -204 239 -123 146 -213 235 -238 236 -4 0
-16 -12 -28 -27z m185 -678 c29 -60 103 -213 165 -340 234 -480 314 -643 365
-750 29 -60 103 -213 165 -340 62 -126 145 -297 185 -380 40 -82 114 -235 165
-340 51 -104 131 -269 178 -365 46 -96 127 -263 179 -370 53 -107 132 -271
178 -365 45 -93 122 -251 170 -350 48 -99 120 -247 160 -330 40 -82 119 -244
175 -360 56 -115 138 -284 182 -375 44 -91 93 -191 109 -224 16 -32 29 -61 29
-65 0 -7 -88 -115 -180 -221 -49 -56 -91 -106 -170 -200 -25 -29 -74 -88 -110
-130 -36 -42 -85 -100 -110 -130 -25 -29 -88 -103 -140 -165 -52 -61 -115
-135 -140 -165 -25 -29 -61 -72 -81 -94 -19 -23 -73 -86 -120 -141 l-84 -100
-1408 0 -1409 0 -56 61 c-53 58 -178 195 -212 234 -8 10 -41 46 -72 81 -31 35
-65 74 -75 85 -10 12 -40 46 -68 76 -27 30 -81 90 -120 133 -38 43 -77 86 -85
95 -8 9 -69 76 -135 150 -66 74 -122 137 -125 140 -3 3 -41 46 -85 95 -44 50
-82 92 -85 95 -32 32 -32 34 56 216 47 99 101 211 119 249 18 39 59 124 90
190 31 66 73 154 92 195 20 41 73 153 119 248 46 96 84 175 84 177 0 2 38 81
84 177 46 95 98 205 116 243 18 39 70 148 116 244 46 95 84 175 84 176 0 2 35
76 79 166 43 90 90 189 104 219 14 30 62 132 107 225 45 94 97 202 115 240 29
62 129 272 292 615 31 63 75 156 98 205 56 118 158 332 296 623 28 59 71 148
94 197 23 50 69 146 103 215 33 69 78 163 100 210 22 47 67 143 101 214 l62
128 50 -103 c28 -57 75 -153 104 -214z m185 68 c0 -5 13 -21 28 -38 15 -16 86
-97 157 -180 71 -82 134 -155 140 -161 5 -6 30 -35 54 -64 25 -29 50 -58 56
-64 6 -6 20 -24 33 -40 12 -15 41 -50 64 -76 52 -57 55 -61 238 -275 80 -94
157 -183 171 -200 15 -16 100 -115 190 -220 90 -104 168 -195 174 -201 5 -6
19 -22 30 -35 37 -44 200 -234 226 -264 15 -16 115 -133 224 -260 265 -309
288 -337 300 -349 6 -6 48 -56 94 -111 47 -55 92 -107 100 -116 9 -9 36 -40
61 -70 41 -49 642 -747 714 -830 17 -20 51 -60 76 -89 25 -30 64 -74 87 -99
23 -25 42 -50 42 -56 1 -5 -14 -26 -32 -46 -17 -20 -115 -135 -217 -255 -101
-120 -187 -221 -190 -224 -3 -3 -28 -32 -55 -65 -28 -33 -52 -62 -55 -65 -3
-3 -41 -48 -85 -100 -44 -52 -88 -104 -98 -115 -10 -11 -53 -62 -95 -112 l-77
-93 -85 174 c-93 190 -187 382 -586 1204 -302 621 -411 844 -499 1027 -40 83
-121 249 -180 370 -59 121 -136 279 -170 350 -69 144 -199 410 -355 730 -128
262 -253 521 -335 690 -34 72 -85 176 -114 233 -28 56 -47 102 -41 102 5 0 10
-3 10 -7z m-680 -42 c-21 -42 -122 -254 -172 -361 -17 -36 -71 -148 -119 -249
-49 -101 -89 -185 -89 -186 0 -2 -40 -87 -90 -190 -49 -103 -90 -188 -90 -190
0 -1 -40 -85 -89 -186 -48 -101 -104 -218 -124 -259 -19 -41 -65 -138 -102
-215 -37 -77 -83 -174 -102 -215 -20 -41 -69 -144 -109 -228 -41 -85 -74 -155
-74 -157 0 -1 -42 -90 -94 -197 -51 -106 -105 -218 -119 -248 -14 -30 -55
-118 -92 -195 -37 -77 -84 -176 -105 -220 -21 -44 -68 -143 -105 -220 -37 -77
-82 -171 -100 -210 -18 -38 -67 -141 -109 -229 -42 -87 -76 -160 -76 -161 0
-2 -39 -83 -86 -181 -48 -99 -110 -228 -138 -289 -29 -60 -74 -156 -101 -211
l-48 -101 -50 56 c-27 31 -66 74 -86 96 -33 36 -191 213 -216 241 -5 6 -40 44
-76 85 -236 264 -352 394 -409 458 -36 41 -70 79 -75 85 -6 6 -29 32 -52 57
l-42 45 22 26 c12 13 45 51 72 83 28 32 59 68 70 79 11 12 67 75 125 141 57
66 119 136 136 155 18 19 69 78 115 130 45 52 87 100 93 106 6 6 20 22 31 35
35 41 169 194 175 199 3 3 34 39 70 80 36 41 67 77 70 80 3 3 71 79 150 170
80 91 147 167 150 170 3 3 32 37 65 75 33 39 63 72 66 75 3 3 73 82 154 175
82 94 154 175 160 181 5 6 35 39 65 74 30 35 62 71 70 80 8 8 127 144 265 300
137 157 263 301 281 320 17 19 71 80 119 135 48 55 100 114 114 130 15 17 112
127 216 245 103 118 191 217 194 220 3 3 33 37 66 75 33 39 64 75 70 81 28 31
133 150 149 170 28 34 29 30 6 -15z m3080 -5343 c46 -94 130 -269 188 -387
208 -430 282 -583 282 -590 0 -5 -1503 -7 -1533 -2 -6 1 40 58 208 256 24 28
100 118 170 200 71 83 142 166 159 186 17 20 121 142 231 273 109 130 202 236
205 236 4 0 44 -77 90 -172z m-5140 -133 c74 -83 167 -186 205 -230 39 -43 93
-103 120 -133 28 -30 58 -64 68 -76 10 -11 46 -52 80 -90 34 -38 70 -79 80
-90 10 -12 49 -55 86 -96 38 -41 80 -89 94 -105 l25 -30 -752 0 c-470 1 -750
4 -749 10 1 6 42 95 92 198 50 104 91 190 91 192 0 2 45 96 100 210 55 113
100 207 100 209 0 2 30 65 66 141 l67 138 46 -49 c26 -27 107 -117 181 -199z
m3662 -1040 c-3 -5 -29 -37 -57 -70 -29 -33 -63 -73 -76 -89 -13 -17 -40 -48
-60 -70 -19 -23 -71 -84 -114 -136 -44 -52 -82 -97 -85 -100 -3 -3 -41 -48
-85 -100 -44 -52 -82 -97 -85 -100 -3 -3 -41 -48 -85 -100 -44 -52 -90 -106
-102 -120 -11 -14 -74 -88 -140 -165 -65 -77 -128 -151 -140 -165 -11 -14 -50
-59 -84 -100 -86 -101 -98 -114 -102 -109 -6 8 -322 365 -363 409 -22 25 -65
72 -95 105 -30 34 -88 98 -129 144 -41 47 -80 89 -85 95 -6 6 -62 69 -125 141
-63 71 -122 136 -130 145 -8 9 -46 51 -85 95 -135 151 -160 180 -212 235 l-52
55 67 5 c134 10 2430 5 2424 -5z"/>
<path d="M4888 6455 c-1 -1 -32 -5 -68 -9 -127 -12 -248 -49 -372 -114 -288
-150 -515 -427 -651 -792 -32 -88 -73 -221 -83 -273 -2 -12 -7 -35 -10 -52 -4
-16 -8 -39 -9 -50 -2 -18 -10 -75 -21 -145 -16 -105 -22 -404 -10 -515 4 -33
9 -85 12 -115 11 -111 55 -309 95 -431 206 -630 647 -1000 1194 -1001 176 0
370 85 531 233 64 58 142 147 181 207 62 96 94 132 132 151 46 24 46 24 80 6
28 -14 39 -38 47 -100 1 -11 3 -122 3 -247 l1 -228 75 0 75 0 1 738 c0 405 2
745 4 755 5 26 32 54 64 65 14 5 94 10 176 10 83 0 166 1 186 1 l35 1 -1 73
-1 72 -679 0 -680 0 -1 -72 c0 -67 1 -73 20 -73 12 0 100 -2 196 -3 194 -2
218 -9 238 -65 6 -17 9 -153 7 -348 -2 -286 -4 -327 -23 -394 -46 -169 -126
-306 -256 -435 -164 -163 -316 -217 -531 -190 -196 26 -378 145 -477 312 -114
192 -180 472 -205 868 -10 151 -9 712 1 865 8 122 9 132 26 250 6 41 14 91 16
110 7 55 61 249 88 319 77 193 187 322 341 395 291 140 593 77 843 -176 189
-191 327 -434 442 -780 l53 -158 58 0 59 0 0 648 0 648 -59 2 -59 1 -47 -133
c-63 -179 -74 -196 -126 -196 -48 0 -67 9 -138 67 -158 128 -353 234 -507 274
-67 17 -255 34 -266 24z"/>
</g>
</svg>
