<?xml version="1.0" standalone="no"?>
<!DOCTYPE svg PUBLIC "-//W3C//DTD SVG 20010904//EN"
 "http://www.w3.org/TR/2001/REC-SVG-20010904/DTD/svg10.dtd">
<svg version="1.0" xmlns="http://www.w3.org/2000/svg"
 width="500.000000pt" height="500.000000pt" viewBox="0 0 500.000000 500.000000"
 preserveAspectRatio="xMidYMid meet">
<metadata>
Created by potrace 1.14, written by Peter Selinger 2001-2017
</metadata>
<g transform="translate(0.000000,500.000000) scale(0.100000,-0.100000)"
fill="#000000" stroke="none">
<path d="M2350 3888 c-577 -55 -1081 -501 -1209 -1069 -31 -135 -40 -229 -36
-356 13 -364 154 -693 406 -943 273 -271 606 -410 984 -411 130 0 190 6 306
32 469 102 865 458 1018 915 49 146 62 219 68 394 4 139 2 184 -15 285 -125
727 -781 1224 -1522 1153z m375 -94 c180 -30 379 -112 535 -222 90 -64 255
-232 317 -323 100 -145 171 -312 209 -489 23 -105 26 -401 6 -495 -60 -274
-178 -497 -364 -687 -108 -109 -204 -180 -338 -248 -205 -103 -402 -145 -640
-137 -211 7 -367 47 -546 138 -342 173 -598 502 -686 878 -29 128 -36 389 -13
518 105 588 593 1034 1183 1082 111 9 223 4 337 -15z"/>
<path d="M2355 3633 c-66 -75 -124 -141 -130 -147 -57 -63 -816 -926 -833
-948 -11 -14 8 -40 147 -195 89 -98 161 -183 161 -190 0 -6 -42 -96 -92 -200
-51 -103 -94 -190 -96 -193 -1 -3 121 -5 272 -4 150 1 278 -1 283 -5 5 -3 102
-111 217 -239 114 -127 210 -232 214 -231 4 0 79 86 167 191 88 105 179 212
202 238 l42 47 270 0 c149 -1 273 2 276 5 3 3 -39 97 -94 210 l-99 205 149
174 c82 96 147 177 146 181 -5 16 -1063 1238 -1072 1238 -6 0 -64 -62 -130
-137z m230 -175 c54 -112 144 -297 201 -413 56 -115 156 -322 223 -460 68
-137 138 -285 158 -327 l35 -77 -160 -188 -160 -189 -398 0 -397 1 -158 175
c-87 96 -158 180 -159 186 0 6 30 74 66 150 36 77 86 182 111 234 140 294 210
442 300 630 38 80 105 220 148 313 44 92 82 167 86 167 3 0 50 -91 104 -202z
m311 -228 c153 -179 350 -407 436 -508 87 -101 158 -187 158 -192 0 -10 -238
-293 -250 -298 -4 -1 -19 23 -33 55 -14 32 -92 193 -173 358 -80 165 -166 341
-189 390 -23 50 -93 193 -154 318 -61 126 -111 232 -111 235 0 10 15 -8 316
-358z m-693 -27 c-96 -203 -192 -404 -213 -448 -21 -44 -60 -127 -88 -185 -27
-58 -77 -162 -110 -232 -34 -71 -63 -128 -65 -128 -6 0 -271 300 -275 311 -4
10 -15 -2 522 607 214 243 393 442 397 442 4 0 -72 -165 -168 -367z m1103
-1228 c41 -85 74 -159 74 -163 0 -5 -94 -9 -210 -8 -115 0 -210 4 -210 9 0 9
260 317 267 317 3 0 38 -70 79 -155z m-1427 -11 c72 -80 131 -149 131 -153 0
-5 -92 -8 -205 -7 -113 0 -205 4 -205 9 0 14 135 296 142 297 3 0 65 -66 137
-146z m946 -214 c3 -5 -266 -333 -319 -388 -10 -10 -46 25 -187 183 -96 107
-175 199 -177 203 -3 10 677 12 683 2z"/>
<path d="M2353 2876 c-125 -40 -211 -145 -254 -314 -23 -90 -25 -218 -4 -315
54 -256 277 -407 452 -307 29 16 68 51 88 77 67 88 85 83 85 -28 0 -72 2 -79
20 -79 19 0 20 7 20 215 0 243 -5 229 82 229 42 -1 48 2 48 20 0 21 -4 21
-190 21 -187 0 -190 0 -190 -21 0 -19 6 -21 54 -22 30 0 59 -3 65 -7 7 -4 11
-46 11 -108 0 -81 -5 -111 -21 -147 -23 -50 -70 -105 -111 -126 -63 -33 -175
-4 -218 56 -49 68 -63 141 -67 345 -5 200 6 293 43 370 46 98 154 139 250 96
76 -35 159 -144 194 -256 15 -47 29 -67 41 -59 5 3 9 86 9 185 0 163 -2 180
-17 177 -9 -2 -23 -22 -31 -45 -17 -52 -33 -54 -90 -12 -87 64 -179 83 -269
55z"/>
</g>
</svg>
